<svg width="80" height="80" viewBox="0 0 80 80" fill="none" xmlns="http://www.w3.org/2000/svg">
  <rect width="80" height="80" rx="40" fill="#FFB86A" opacity="0.1"/>
  <rect x="10" y="10" width="60" height="60" rx="30" fill="#FFB86A" opacity="0.2"/>
  <rect x="20" y="20" width="40" height="40" rx="20" fill="#FFB86A"/>
  <path d="M40 30C40 30 38 32 38 35C38 38 40 40 40 40C40 40 42 38 42 35C42 32 40 30 40 30Z" fill="white"/>
  <circle cx="30" cy="35" r="3" fill="white" opacity="0.8"/>
  <circle cx="50" cy="35" r="3" fill="white" opacity="0.8"/>
  <path d="M32 45C32 45 35 48 40 48C45 48 48 45 48 45" stroke="white" stroke-width="2" stroke-linecap="round"/>
</svg>